<svg width="511" height="511" viewBox="0 0 511 511" fill="none" xmlns="http://www.w3.org/2000/svg">
<g clip-path="url(#clip0)">
<path d="M58.846 187.18C60.3041 188.638 62.2183 189.371 64.1326 189.371C66.0468 189.371 67.961 188.642 69.423 187.18C72.3431 184.26 72.3431 179.523 69.423 176.603L51.2632 158.444L69.423 140.288C72.3431 137.364 72.3431 132.631 69.423 129.711C66.5029 126.79 61.7661 126.79 58.846 129.711L35.3996 153.157C33.9961 154.56 33.2086 156.463 33.2086 158.444C33.2086 160.428 33.9961 162.33 35.3996 163.734L58.846 187.18Z" fill="white"/>
<path d="M133.06 158.444L114.901 176.603C111.981 179.523 111.981 184.26 114.904 187.18C116.363 188.638 118.277 189.371 120.191 189.371C122.105 189.371 124.02 188.638 125.478 187.18L148.928 163.73C151.848 160.81 151.848 156.073 148.928 153.157L125.478 129.707C122.558 126.787 117.825 126.787 114.904 129.707C111.981 132.631 111.981 137.364 114.904 140.284L133.06 158.444Z" fill="white"/>
<path d="M81.0137 188.853C81.9104 189.204 82.8382 189.371 83.7466 189.371C86.733 189.371 89.5517 187.57 90.7096 184.627L109.131 137.73C110.643 133.886 108.749 129.547 104.905 128.034C101.064 126.525 96.7213 128.416 95.2125 132.26L76.7876 179.157C75.2788 183.001 77.1696 187.344 81.0137 188.853Z" fill="white"/>
<path d="M44.9201 233.247H95.3022C99.4308 233.247 102.78 229.898 102.78 225.765C102.78 221.637 99.4308 218.288 95.3022 218.288H44.9201C40.7875 218.288 37.4425 221.637 37.4425 225.765C37.4425 229.898 40.7875 233.247 44.9201 233.247Z" fill="white"/>
<path d="M211.341 218.288H122.764C118.635 218.288 115.287 221.637 115.287 225.765C115.287 229.898 118.635 233.247 122.764 233.247H211.341C215.474 233.247 218.823 229.898 218.823 225.765C218.823 221.637 215.474 218.288 211.341 218.288Z" fill="white"/>
<path d="M360.055 250H271.478C267.349 250 264 253.349 264 257.478C264 261.61 267.349 264.959 271.478 264.959H360.055C364.187 264.959 367.536 261.61 367.536 257.478C367.536 253.349 364.187 250 360.055 250Z" fill="white"/>
<path d="M44.9201 264.79H66.3821C70.5107 264.79 73.8597 261.441 73.8597 257.309C73.8597 253.18 70.5107 249.831 66.3821 249.831H44.9201C40.7875 249.831 37.4425 253.18 37.4425 257.309C37.4425 261.441 40.7875 264.79 44.9201 264.79Z" fill="white"/>
<path d="M183.981 249.831C179.848 249.831 176.503 253.18 176.503 257.309C176.503 261.441 179.848 264.79 183.981 264.79H197.049C201.181 264.79 204.53 261.441 204.53 257.309C204.53 253.18 201.181 249.831 197.049 249.831H183.981Z" fill="white"/>
<path d="M164.296 257.309C164.296 253.18 160.947 249.831 156.819 249.831H92.6238C88.4912 249.831 85.1462 253.18 85.1462 257.309C85.1462 261.441 88.4912 264.79 92.6238 264.79H156.819C160.947 264.79 164.296 261.441 164.296 257.309Z" fill="white"/>
<path d="M213.287 257.309C213.287 261.441 216.636 264.79 220.764 264.79H245.244C249.376 264.79 252.725 261.441 252.725 257.309C252.725 253.18 249.376 249.831 245.244 249.831H220.764C216.636 249.831 213.287 253.18 213.287 257.309Z" fill="white"/>
<path d="M270 289.478C270 293.61 273.349 296.959 277.478 296.959H301.957C306.09 296.959 309.439 293.61 309.439 289.478C309.439 285.349 306.09 282 301.957 282H277.478C273.349 282 270 285.349 270 289.478Z" fill="white"/>
<path d="M334 227.478C334 231.61 337.349 234.959 341.478 234.959H365.957C370.09 234.959 373.439 231.61 373.439 227.478C373.439 223.349 370.09 220 365.957 220H341.478C337.349 220 334 223.349 334 227.478Z" fill="white"/>
<path d="M172.558 164.443H198.378C202.511 164.443 205.86 161.095 205.86 156.962C205.86 152.833 202.511 149.484 198.378 149.484H172.558C168.425 149.484 165.076 152.833 165.076 156.962C165.076 161.095 168.425 164.443 172.558 164.443Z" fill="white"/>
<path d="M227.298 164.443H384.846C388.979 164.443 392.324 161.095 392.324 156.962C392.324 152.833 388.979 149.484 384.846 149.484H227.298C223.166 149.484 219.817 152.833 219.817 156.962C219.817 161.095 223.166 164.443 227.298 164.443V164.443Z" fill="white"/>
<path d="M360.916 182.389H297.096C292.967 182.389 289.618 185.738 289.618 189.87C289.618 193.999 292.967 197.348 297.096 197.348H360.916C365.045 197.348 368.394 193.999 368.394 189.87C368.394 185.738 365.045 182.389 360.916 182.389Z" fill="white"/>
<path d="M273.166 182.389H251.228C247.096 182.389 243.751 185.738 243.751 189.87C243.751 193.999 247.096 197.348 251.228 197.348H273.166C277.298 197.348 280.643 193.999 280.643 189.87C280.643 185.738 277.298 182.389 273.166 182.389Z" fill="white"/>
<path d="M172.558 197.348H226.3C230.429 197.348 233.778 193.999 233.778 189.87C233.778 185.738 230.429 182.389 226.3 182.389H172.558C168.425 182.389 165.076 185.738 165.076 189.87C165.076 193.999 168.425 197.348 172.558 197.348Z" fill="white"/>
<path d="M156.912 281.11H106.534C102.402 281.11 99.0526 284.459 99.0526 288.588C99.0526 292.716 102.402 296.065 106.534 296.065H156.912C161.041 296.065 164.39 292.716 164.39 288.588C164.39 284.459 161.041 281.11 156.912 281.11Z" fill="white"/>
<path d="M83.6257 281.11H44.9201C40.7875 281.11 37.4425 284.459 37.4425 288.588C37.4425 292.716 40.7875 296.065 44.9201 296.065H83.6257C87.7583 296.065 91.1033 292.716 91.1033 288.588C91.1033 284.459 87.7583 281.11 83.6257 281.11Z" fill="white"/>
<path d="M368.183 282H329.478C325.345 282 322 285.349 322 289.478C322 293.606 325.345 296.955 329.478 296.955H368.183C372.316 296.955 375.661 293.606 375.661 289.478C375.661 285.349 372.316 282 368.183 282Z" fill="white"/>
<path d="M248.238 281.11H182.425C178.292 281.11 174.947 284.459 174.947 288.588C174.947 292.716 178.292 296.065 182.425 296.065H248.238C252.366 296.065 255.715 292.716 255.715 288.588C255.715 284.459 252.366 281.11 248.238 281.11V281.11Z" fill="white"/>
<path d="M311.29 220H245.478C241.345 220 238 223.349 238 227.478C238 231.606 241.345 234.955 245.478 234.955H311.29C315.419 234.955 318.768 231.606 318.768 227.478C318.768 223.349 315.419 220 311.29 220V220Z" fill="white"/>
<path d="M55.154 29.7028C43.0526 29.7028 33.2086 39.5468 33.2086 51.6482C33.2086 63.7495 43.0526 73.5975 55.154 73.5975C67.2554 73.5975 77.1033 63.7495 77.1033 51.6482C77.1033 39.5468 67.2554 29.7028 55.154 29.7028ZM55.154 58.6384C51.3022 58.6384 48.1638 55.5039 48.1638 51.6482C48.1638 47.7963 51.3022 44.6579 55.154 44.6579C59.0098 44.6579 62.1443 47.7963 62.1443 51.6482C62.1443 55.5039 59.0098 58.6384 55.154 58.6384Z" fill="white"/>
<path d="M111.033 29.7028C98.9318 29.7028 89.0838 39.5468 89.0838 51.6482C89.0838 63.7495 98.9318 73.5975 111.033 73.5975C123.135 73.5975 132.979 63.7495 132.979 51.6482C132.979 39.5468 123.131 29.7028 111.033 29.7028ZM111.033 58.6384C107.177 58.6384 104.043 55.5039 104.043 51.6482C104.043 47.7963 107.177 44.6579 111.033 44.6579C114.885 44.6579 118.023 47.7963 118.023 51.6482C118.023 55.5039 114.885 58.6384 111.033 58.6384Z" fill="white"/>
<path d="M166.908 29.7028C154.807 29.7028 144.963 39.5468 144.963 51.6482C144.963 63.7495 154.807 73.5975 166.908 73.5975C179.01 73.5975 188.858 63.7495 188.858 51.6482C188.858 39.5468 179.01 29.7028 166.908 29.7028ZM166.908 58.6384C163.057 58.6384 159.918 55.5039 159.918 51.6482C159.918 47.7963 163.057 44.6579 166.908 44.6579C170.764 44.6579 173.899 47.7963 173.899 51.6482C173.899 55.5039 170.764 58.6384 166.908 58.6384Z" fill="white"/>
<line x1="-2" y1="96" x2="509" y2="96" stroke="white" stroke-width="16"/>
<line x1="-2" y1="359" x2="509" y2="359" stroke="white" stroke-width="16"/>
<mask id="path-28-inside-1" fill="white">
<path d="M128 483.5C128 468.312 140.312 456 155.5 456H354.5C369.688 456 382 468.312 382 483.5V499C382 505.627 376.627 511 370 511H140C133.373 511 128 505.627 128 499V483.5Z"/>
</mask>
<path d="M128 483.5C128 468.312 140.312 456 155.5 456H354.5C369.688 456 382 468.312 382 483.5V499C382 505.627 376.627 511 370 511H140C133.373 511 128 505.627 128 499V483.5Z" stroke="white" stroke-width="32" mask="url(#path-28-inside-1)"/>
<line x1="186" y1="413" x2="186" y2="456" stroke="white" stroke-width="16"/>
<line x1="324" y1="413" x2="324" y2="456" stroke="white" stroke-width="16"/>
<rect x="7" y="8" width="496" height="413" rx="27" stroke="white" stroke-width="16"/>
</g>
<defs>
<clipPath id="clip0">
<rect width="511" height="511" fill="white"/>
</clipPath>
</defs>
</svg>
