<svg width="100" height="100" viewBox="0 0 100 100" fill="none" xmlns="http://www.w3.org/2000/svg">
<g clip-path="url(#clip0)">
<path d="M49.9999 23.3335C44.477 23.3335 39.9999 27.8106 39.9999 33.3335C40.0053 38.8541 44.4792 43.328 49.9999 43.3335C55.5228 43.3335 59.9998 38.8564 59.9998 33.3335C59.9998 27.8106 55.5228 23.3335 49.9999 23.3335ZM49.9999 40.0001C46.318 40.0001 43.3332 37.0153 43.3332 33.3335C43.3332 29.6516 46.318 26.6668 49.9999 26.6668C53.6817 26.6668 56.6665 29.6516 56.6665 33.3335C56.6665 37.0153 53.6819 40.0001 49.9999 40.0001Z" fill="white"/>
<path d="M67.8673 47.7499C67.3171 47.1989 66.7371 46.6785 66.1298 46.191L66.1465 46.1427C71.6402 29.1896 65.4948 10.6325 50.9682 0.309423C50.3888 -0.104118 49.6109 -0.104118 49.0315 0.309423C34.5049 10.6325 28.3595 29.1896 33.8532 46.1427L33.8699 46.191C24.7049 53.5481 23.2391 66.9418 30.5959 76.1068C31.0834 76.7141 31.6038 77.2941 32.1549 77.8443C32.4674 78.1568 32.8911 78.3326 33.3332 78.3326C33.5122 78.3324 33.6899 78.3036 33.8599 78.2476C34.4588 78.0482 34.8936 77.5276 34.9832 76.9026L36.2415 68.096C36.3593 67.2757 37.0613 66.6666 37.8899 66.666H42.9665L41.6999 72.9993C41.5157 73.9011 42.0976 74.7816 42.9994 74.9655C43.1092 74.988 43.2211 74.9993 43.3332 74.9993H56.6665C57.5869 74.9995 58.3334 74.2534 58.3336 73.333C58.3336 73.2209 58.3223 73.1091 58.2998 72.9993L57.0332 66.666H62.1098C62.9388 66.6668 63.6413 67.2768 63.7582 68.0976L65.0165 76.9026C65.1061 77.5276 65.5409 78.0482 66.1398 78.2476C66.3098 78.3036 66.4875 78.3324 66.6665 78.3326C67.1086 78.3326 67.5323 78.1568 67.8448 77.8443C76.1615 69.5403 76.1715 56.0666 67.8673 47.7499ZM49.9999 3.73796C54.0055 6.79378 57.3563 10.6236 59.8532 14.9996H40.1465C42.6434 10.6236 45.9942 6.79378 49.9999 3.73796ZM37.8899 63.3328C35.4057 63.3435 33.3026 65.1685 32.9416 67.6262L32.2199 72.6811C29.9932 69.3193 28.9661 65.3043 29.3049 61.2862H29.3032C29.6701 56.8216 31.6909 52.6549 34.9699 49.6029L39.3799 63.3328H37.8899V63.3328ZM45.3665 71.6662L46.3665 66.6662H53.6332L54.6332 71.6662H45.3665ZM42.8815 63.3328L37.3949 46.2629L37.0282 45.1212C34.1868 36.3198 34.7001 26.7785 38.4699 18.3329H61.5298C65.2996 26.7785 65.8131 36.3198 62.9715 45.1212L62.6048 46.2629L57.1182 63.3328H42.8815ZM67.7798 72.6811L67.0581 67.6262C66.6971 65.1685 64.594 63.3435 62.1098 63.3328H60.6198L65.0331 49.6029C68.3102 52.6558 70.3294 56.8222 70.6948 61.2862C71.0338 65.3043 70.0067 69.3193 67.7798 72.6811Z" fill="white"/>
<path d="M43.3332 78.2V83.6333C39.286 82.3979 34.8874 83.4733 31.8666 86.4367C29.3341 83.4231 25.6029 81.6783 21.6666 81.6667C20.4531 81.6667 19.2456 81.835 18.0783 82.1667C16.7325 74.1594 9.78623 68.3044 1.66666 68.3334H0V71.6667H1.66666C8.47977 71.6456 14.1996 76.7925 14.895 83.57C13.2752 84.5133 11.8719 85.7871 10.7766 87.3083C7.77269 84.7419 3.95103 83.3321 0 83.3333V86.6667C7.3604 86.675 13.325 92.6396 13.3333 100H16.6666C16.6685 96.3081 15.4366 92.7214 13.1666 89.81C14.156 88.1706 15.5935 86.8485 17.31 86C17.3266 86 17.345 86 17.3616 85.9833C18.7041 85.3352 20.1758 84.9992 21.6666 85C24.8968 85.015 27.9216 86.586 29.7916 89.22C28.8445 91.0002 28.3441 92.9837 28.3333 95H31.6666C31.6651 93.296 32.1466 91.6266 33.0549 90.185H33.0449C33.0683 90.1533 33.0999 90.13 33.1233 90.0966C35.3756 86.7867 39.6687 85.5548 43.3332 87.1667V91.5333H46.6666V78.2H43.3332V78.2Z" fill="white"/>
<path d="M98.3332 71.6667H99.9998V68.3334H98.3332C90.2136 68.3044 83.2674 74.1594 81.9215 82.1667C80.7542 81.835 79.5467 81.6667 78.3332 81.6667C74.3978 81.6771 70.6666 83.42 68.1332 86.4317C65.1124 83.4683 60.7139 82.3929 56.6666 83.6283V78.195H53.3333V91.5283H56.6666V87.1667C60.3309 85.5544 64.6239 86.7856 66.8766 90.095C66.8999 90.1283 66.9316 90.1516 66.9549 90.1833H66.9449C67.8536 91.6254 68.3349 93.2954 68.3332 95H71.6665C71.6557 92.9837 71.1553 91.0002 70.2082 89.22C72.0782 86.586 75.103 85.015 78.3332 85C79.8242 85.0002 81.2959 85.3375 82.6382 85.9867C82.6549 85.995 82.6732 85.9967 82.6899 86.0033C84.4088 86.8498 85.8494 88.1706 86.8415 89.81C84.5684 92.7204 83.3336 96.3071 83.3332 100H86.6665C86.6749 92.6396 92.6394 86.675 99.9998 86.6667V83.3333C96.0488 83.3325 92.2273 84.7421 89.2232 87.3083C88.128 85.7871 86.7246 84.5133 85.1049 83.57C85.8005 76.7923 91.52 71.6456 98.3332 71.6667Z" fill="white"/>
<path d="M45 48.3335H41.6666V51.6668H45V48.3335Z" fill="white"/>
<path d="M51.6666 48.3335H48.3333V51.6668H51.6666V48.3335Z" fill="white"/>
<path d="M58.3332 48.3335H54.9999V51.6668H58.3332V48.3335Z" fill="white"/>
<path d="M21.6666 88.3335H18.3333V91.6668H21.6666V88.3335Z" fill="white"/>
<path d="M3.33333 61.6667H0V65.0001H3.33333V61.6667Z" fill="white"/>
<path d="M96.6665 76.6667H93.3331V80.0001H96.6665V76.6667Z" fill="white"/>
<path d="M83.3332 70H79.9999V73.3333H83.3332V70Z" fill="white"/>
<path d="M64.9998 96.6667H61.6665V100H64.9998V96.6667Z" fill="white"/>
<path d="M99.9998 58.3335H96.6665V61.6668H99.9998V58.3335Z" fill="white"/>
</g>
<defs>
<clipPath id="clip0">
<rect width="100" height="100" fill="white"/>
</clipPath>
</defs>
</svg>
